<?xml version="1.0" encoding="UTF-8"?>
<svg width="175px" height="90px" viewBox="0 0 175 90" version="1.1" xmlns="http://www.w3.org/2000/svg" xmlns:xlink="http://www.w3.org/1999/xlink">
    <!-- Generator: Sketch 46.2 (44496) - http://www.bohemiancoding.com/sketch -->
    <title>Artboard</title>
    <desc>Created with Sketch.</desc>
    <defs></defs>
    <g id="Page-2" stroke="none" stroke-width="1" fill="none" fill-rule="evenodd">
        <g id="Artboard" fill="#000000">
            <path d="M91.526,12.746 C91.730001,13.0940017 91.832,13.5439972 91.832,14.096 C91.832,14.4320017 91.8200001,14.6719993 91.796,14.816 C91.5319987,17.1200115 91.2560014,18.7519952 90.968,19.712 C91.6880036,19.2559977 92.5399951,18.7880024 93.524,18.308 C94.5080049,17.8279976 95.1079989,17.5400005 95.324,17.444 C95.9000029,17.1559986 96.4399975,17.012 96.944,17.012 C97.6400035,17.012 98.083999,17.2999971 98.276,17.876 C98.3240002,17.9960006 98.348,18.151999 98.348,18.344 C98.348,19.1120038 97.6400071,19.6639983 96.224,20 C96.0559992,20.0240001 95.4200055,20.137999 94.316,20.342 C93.2119945,20.546001 92.2160044,20.6719998 91.328,20.72 C92.1920043,21.3920034 93.3679926,22.5199921 94.856,24.104 C95.5280034,24.8240036 95.864,25.483997 95.864,26.084 C95.864,26.5160022 95.6840018,26.8639987 95.324,27.128 C95.0839988,27.2960008 94.8440012,27.38 94.604,27.38 C94.003997,27.38 93.3800032,26.8640052 92.732,25.832 C92.6359995,25.639999 92.3120028,25.040005 91.76,24.032 C91.2079972,23.023995 90.7880014,22.124004 90.5,21.332 C90.1399982,22.2200044 89.3960056,23.7199894 88.268,25.832 C87.667997,26.8640052 87.0440032,27.38 86.396,27.38 C86.1319987,27.38 85.8800012,27.2960008 85.64,27.128 C85.3039983,26.8639987 85.136,26.528002 85.136,26.12 C85.136,25.519997 85.4599968,24.8480037 86.108,24.104 C86.6840029,23.503997 87.2839969,22.8860032 87.908,22.25 C88.5320031,21.6139968 89.1079974,21.1040019 89.636,20.72 C88.6759952,20.6719998 87.0320116,20.4320022 84.704,20 C83.2879929,19.6879984 82.58,19.136004 82.58,18.344 C82.58,18.151999 82.6039998,17.9960006 82.652,17.876 C82.844001,17.2999971 83.2759966,17.012 83.948,17.012 C84.4760026,17.012 85.0279971,17.1559986 85.604,17.444 C86.3720038,17.7800017 87.157996,18.151998 87.962,18.56 C88.766004,18.968002 89.4319974,19.3519982 89.96,19.712 C89.6719986,18.7519952 89.3960013,17.1200115 89.132,14.816 C89.1079999,14.6719993 89.096,14.4680013 89.096,14.204 C89.096,13.6519972 89.2039989,13.1840019 89.42,12.8 C89.6360011,12.4159981 89.9959975,12.224 90.5,12.224 C90.9800024,12.224 91.321999,12.3979983 91.526,12.746 Z M29.516,41.126 C29.9720023,41.4500016 30.2,41.911997 30.2,42.512 C30.2,42.8480017 30.0860011,43.1719984 29.858,43.484 C29.6299989,43.7960016 29.2880023,43.952 28.832,43.952 C28.3519976,43.952 27.9740014,43.7840017 27.698,43.448 C27.4219986,43.1119983 27.2959999,42.6800026 27.32,42.152 C27.1759993,42.0559995 26.900002,42.008 26.492,42.008 C25.3639944,42.008 24.5540025,42.6799933 24.062,44.024 C23.5699975,45.3680067 23.2160011,47.3599868 23,50 L28.112,50 L28.004,51.404 L22.892,51.476 L22.784,53.492 C22.6159992,56.300014 22.4840005,58.303994 22.388,59.504 L22.172,62.06 C21.8839986,65.5880176 21.5480019,68.3779897 21.164,70.43 C20.7799981,72.4820103 20.0600053,74.2159929 19.004,75.632 C17.9479947,77.0480071 16.4000102,77.756 14.36,77.756 C13.4479954,77.756 12.7520024,77.6000016 12.272,77.288 C11.7919976,76.9759984 11.552,76.5080031 11.552,75.884 C11.552,75.5479983 11.6719988,75.2180016 11.912,74.894 C12.1520012,74.5699984 12.4999977,74.408 12.956,74.408 C13.4120023,74.408 13.7719987,74.5579985 14.036,74.858 C14.3000013,75.1580015 14.432,75.5599975 14.432,76.064 C14.6960013,76.256001 15.0439978,76.352 15.476,76.352 C16.3400043,76.352 16.9999977,75.8780047 17.456,74.93 C17.9120023,73.9819953 18.235999,72.7520076 18.428,71.24 C18.620001,69.7279924 18.8239989,67.4840149 19.04,64.508 C19.1840007,62.107988 19.3159994,60.3320058 19.436,59.18 L19.652,56.588 C19.7720006,54.787991 19.9159992,53.0960079 20.084,51.512 L16.916,51.548 L17.096,50 L20.264,50 C20.6960022,47.0239851 21.4519946,44.7200082 22.532,43.088 C23.6120054,41.4559918 25.2919886,40.64 27.572,40.64 C28.4120042,40.64 29.0599977,40.8019984 29.516,41.126 Z M41.558,50.54 C42.6020052,51.1640031 43.4179971,52.0699941 44.006,53.258 C44.5940029,54.4460059 44.888,55.8559918 44.888,57.488 C44.888,59.4560098 44.5340035,61.2679917 43.826,62.924 C43.1179965,64.5800083 42.0980067,65.905995 40.766,66.902 C39.4339933,67.898005 37.868009,68.396 36.068,68.396 C33.7879886,68.396 32.0660058,67.6460075 30.902,66.146 C29.7379942,64.6459925 29.156,62.7080119 29.156,60.332 C29.156,58.3639902 29.5159964,56.5640082 30.236,54.932 C30.9560036,53.2999918 31.9879933,52.0040048 33.332,51.044 C34.6760067,50.0839952 36.247991,49.604 38.048,49.604 C39.3440065,49.604 40.5139948,49.9159969 41.558,50.54 Z M34.718,52.07 C33.9379961,52.8260038 33.344002,53.8579935 32.936,55.166 C32.527998,56.4740065 32.324,57.931992 32.324,59.54 C32.324,61.53201 32.6479968,63.2779925 33.296,64.778 C33.9440032,66.2780075 34.9999927,67.028 36.464,67.028 C37.6880061,67.028 38.6899961,66.5600047 39.47,65.624 C40.2500039,64.6879953 40.8199982,63.5360068 41.18,62.168 C41.5400018,60.7999932 41.72,59.4680065 41.72,58.172 C41.72,56.1559899 41.4020032,54.446007 40.766,53.042 C40.1299968,51.637993 39.0320078,50.936 37.472,50.936 C36.4159947,50.936 35.4980039,51.3139962 34.718,52.07 Z M60.314,50.54 C61.3580052,51.1640031 62.1739971,52.0699941 62.762,53.258 C63.3500029,54.4460059 63.644,55.8559918 63.644,57.488 C63.644,59.4560098 63.2900035,61.2679917 62.582,62.924 C61.8739965,64.5800083 60.8540067,65.905995 59.522,66.902 C58.1899933,67.898005 56.624009,68.396 54.824,68.396 C52.5439886,68.396 50.8220058,67.6460075 49.658,66.146 C48.4939942,64.6459925 47.912,62.7080119 47.912,60.332 C47.912,58.3639902 48.2719964,56.5640082 48.992,54.932 C49.7120036,53.2999918 50.7439933,52.0040048 52.088,51.044 C53.4320067,50.0839952 55.003991,49.604 56.804,49.604 C58.1000065,49.604 59.2699948,49.9159969 60.314,50.54 Z M53.474,52.07 C52.6939961,52.8260038 52.100002,53.8579935 51.692,55.166 C51.283998,56.4740065 51.08,57.931992 51.08,59.54 C51.08,61.53201 51.4039968,63.2779925 52.052,64.778 C52.7000032,66.2780075 53.7559927,67.028 55.22,67.028 C56.4440061,67.028 57.4459961,66.5600047 58.226,65.624 C59.0060039,64.6879953 59.5759982,63.5360068 59.936,62.168 C60.2960018,60.7999932 60.476,59.4680065 60.476,58.172 C60.476,56.1559899 60.1580032,54.446007 59.522,53.042 C58.8859968,51.637993 57.7880078,50.936 56.228,50.936 C55.1719947,50.936 54.2540039,51.3139962 53.474,52.07 Z M72.428,50 L78.152,50 L78.044,51.368 L72.284,51.44 L72.032,53.744 C71.5039974,58.3040228 71.24,61.5319905 71.24,63.428 C71.24,64.3640047 71.3479989,65.1199971 71.564,65.696 C71.7800011,66.2720029 72.2359965,66.56 72.932,66.56 C74.1800062,66.56 75.307995,65.7200084 76.316,64.04 L77.252,64.652 C76.5079963,65.9240064 75.734004,66.8659969 74.93,67.478 C74.125996,68.0900031 73.1720055,68.396 72.068,68.396 C70.7479934,68.396 69.7940029,68.000004 69.206,67.208 C68.6179971,66.415996 68.324,65.3960062 68.324,64.148 C68.324,62.755993 68.4079992,60.9260113 68.576,58.658 C68.7440008,56.3899887 68.9719986,53.9960126 69.26,51.476 L66.056,51.512 L66.164,50 C67.6040072,50 68.7679956,49.5740043 69.656,48.722 C70.5440044,47.8699957 71.2279976,46.6040084 71.708,44.924 L73.076,44.924 L72.428,50 Z M95.594,50.9 C96.2300032,51.7640043 96.548,52.891993 96.548,54.284 C96.548,55.892008 96.3200023,58.195985 95.864,61.196 C95.5999987,63.0920095 95.468,64.339997 95.468,64.94 C95.468,65.4680026 95.5339993,65.8759986 95.666,66.164 C95.7980007,66.4520014 96.0559981,66.596 96.44,66.596 C96.8960023,66.596 97.3639976,66.3140028 97.844,65.75 C98.3240024,65.1859972 98.7319983,64.304006 99.068,63.104 L100.076,63.356 C99.9559994,64.0280034 99.698002,64.7539961 99.302,65.534 C98.905998,66.3140039 98.3780033,66.9859972 97.718,67.55 C97.0579967,68.1140028 96.2840044,68.396 95.396,68.396 C94.3159946,68.396 93.5600022,68.1140028 93.128,67.55 C92.6959978,66.9859972 92.48,66.1160059 92.48,64.94 C92.48,64.0519956 92.6359984,62.4680114 92.948,60.188 C93.3800022,57.2599854 93.596,55.0280077 93.596,53.492 C93.596,52.9399972 93.4700013,52.4360023 93.218,51.98 C92.9659987,51.5239977 92.5280031,51.296 91.904,51.296 C90.8479947,51.296 89.7680055,52.093992 88.664,53.69 C87.5599945,55.286008 86.6420037,57.2539883 85.91,59.594 C85.1779963,61.9340117 84.812,64.09999 84.812,66.092 C84.812,66.5480023 84.8359998,67.1839959 84.884,68 L81.86,68 C81.8359999,67.7839989 81.824,67.472002 81.824,67.064 C81.824,66.4879971 81.8779995,65.6840052 81.986,64.652 C82.0940005,63.6199948 82.2559989,62.2640084 82.472,60.584 C82.472,60.4399993 82.4959998,60.2000017 82.544,59.864 C82.5680001,59.5519984 82.6039998,59.2280017 82.652,58.892 C82.7000002,58.5559983 82.7359999,58.2200017 82.76,57.884 C82.9280008,56.4199927 83.0479996,55.3520034 83.12,54.68 C83.1920004,54.0079966 83.228,53.4560022 83.228,53.024 C83.228,52.5199975 83.1620007,52.1240014 83.03,51.836 C82.8979993,51.5479986 82.6400019,51.404 82.256,51.404 C81.7999977,51.404 81.3320024,51.6919971 80.852,52.268 C80.3719976,52.8440029 79.9640017,53.7199941 79.628,54.896 L78.62,54.68 C78.7400006,54.0079966 78.997998,53.276004 79.394,52.484 C79.790002,51.691996 80.3179967,51.0140028 80.978,50.45 C81.6380033,49.8859972 82.4119956,49.604 83.3,49.604 C85.100009,49.604 86,50.8399876 86,53.312 C86,54.0080035 85.9340007,54.7699959 85.802,55.598 C85.6699993,56.4260041 85.5440006,57.1639968 85.424,57.812 L85.532,57.812 C86.6840058,54.7399846 87.8299943,52.604006 88.97,51.404 C90.1100057,50.203994 91.3279935,49.604 92.624,49.604 C93.9680067,49.604 94.9579968,50.0359957 95.594,50.9 Z M114.314,50.54 C115.358005,51.1640031 116.173997,52.0699941 116.762,53.258 C117.350003,54.4460059 117.644,55.8559918 117.644,57.488 C117.644,59.4560098 117.290004,61.2679917 116.582,62.924 C115.873996,64.5800083 114.854007,65.905995 113.522,66.902 C112.189993,67.898005 110.624009,68.396 108.824,68.396 C106.543989,68.396 104.822006,67.6460075 103.658,66.146 C102.493994,64.6459925 101.912,62.7080119 101.912,60.332 C101.912,58.3639902 102.271996,56.5640082 102.992,54.932 C103.712004,53.2999918 104.743993,52.0040048 106.088,51.044 C107.432007,50.0839952 109.003991,49.604 110.804,49.604 C112.100006,49.604 113.269995,49.9159969 114.314,50.54 Z M107.474,52.07 C106.693996,52.8260038 106.100002,53.8579935 105.692,55.166 C105.283998,56.4740065 105.08,57.931992 105.08,59.54 C105.08,61.53201 105.403997,63.2779925 106.052,64.778 C106.700003,66.2780075 107.755993,67.028 109.22,67.028 C110.444006,67.028 111.445996,66.5600047 112.226,65.624 C113.006004,64.6879953 113.575998,63.5360068 113.936,62.168 C114.296002,60.7999932 114.476,59.4680065 114.476,58.172 C114.476,56.1559899 114.158003,54.446007 113.522,53.042 C112.885997,51.637993 111.788008,50.936 110.228,50.936 C109.171995,50.936 108.254004,51.3139962 107.474,52.07 Z M126.428,50 L132.152,50 L132.044,51.368 L126.284,51.44 L126.032,53.744 C125.503997,58.3040228 125.24,61.5319905 125.24,63.428 C125.24,64.3640047 125.347999,65.1199971 125.564,65.696 C125.780001,66.2720029 126.235997,66.56 126.932,66.56 C128.180006,66.56 129.307995,65.7200084 130.316,64.04 L131.252,64.652 C130.507996,65.9240064 129.734004,66.8659969 128.93,67.478 C128.125996,68.0900031 127.172006,68.396 126.068,68.396 C124.747993,68.396 123.794003,68.000004 123.206,67.208 C122.617997,66.415996 122.324,65.3960062 122.324,64.148 C122.324,62.755993 122.407999,60.9260113 122.576,58.658 C122.744001,56.3899887 122.971999,53.9960126 123.26,51.476 L120.056,51.512 L120.164,50 C121.604007,50 122.767996,49.5740043 123.656,48.722 C124.544004,47.8699957 125.227998,46.6040084 125.708,44.924 L127.076,44.924 L126.428,50 Z M146.12,50.612 C147.080005,51.2840034 147.56,52.3279929 147.56,53.744 C147.56,55.5200089 146.492011,56.8999951 144.356,57.884 C142.219989,58.8680049 139.748014,59.5159984 136.94,59.828 C136.94,62.0840113 137.275997,63.7759944 137.948,64.904 C138.620003,66.0320056 139.651993,66.596 141.044,66.596 C142.148006,66.596 143.215995,66.2300037 144.248,65.498 C145.280005,64.7659963 146.179996,63.6800072 146.948,62.24 L148.136,62.924 C147.127995,64.8200095 146.000006,66.2059956 144.752,67.082 C143.503994,67.9580044 142.064008,68.396 140.432,68.396 C138.223989,68.396 136.562006,67.7060069 135.446,66.326 C134.329994,64.9459931 133.772,63.0440121 133.772,60.62 C133.772,58.6759903 134.101997,56.8700083 134.762,55.202 C135.422003,53.5339917 136.411993,52.1840052 137.732,51.152 C139.052007,50.1199948 140.647991,49.604 142.52,49.604 C143.960007,49.604 145.159995,49.9399966 146.12,50.612 Z M138.452,53.06 C137.611996,54.5480074 137.120001,56.3719892 136.976,58.532 C139.06401,58.2439986 140.851993,57.6680043 142.34,56.804 C143.828007,55.9399957 144.572,54.8600065 144.572,53.564 C144.572,52.771996 144.350002,52.1180026 143.906,51.602 C143.461998,51.0859974 142.832004,50.828 142.016,50.828 C140.479992,50.828 139.292004,51.5719926 138.452,53.06 Z M161.438,50.594 C162.506005,51.2540033 163.04,52.0999948 163.04,53.132 C163.04,53.6360025 162.896001,54.0379985 162.608,54.338 C162.319999,54.6380015 161.960002,54.788 161.528,54.788 C161.119998,54.788 160.778001,54.6440014 160.502,54.356 C160.225999,54.0679986 160.088,53.7320019 160.088,53.348 C160.088,52.939998 160.195999,52.5680017 160.412,52.232 C160.267999,51.7999978 159.956002,51.4520013 159.476,51.188 C158.995998,50.9239987 158.372004,50.792 157.604,50.792 C156.763996,50.792 156.002003,51.0619973 155.318,51.602 C154.633997,52.1420027 154.292,52.8199959 154.292,53.636 C154.292,54.3320035 154.603997,54.9559972 155.228,55.508 C155.852003,56.0600028 156.811994,56.7079963 158.108,57.452 C159.188005,58.0760031 160.063997,58.6339975 160.736,59.126 C161.408003,59.6180025 161.977998,60.1999966 162.446,60.872 C162.914002,61.5440034 163.148,62.2999958 163.148,63.14 C163.148,64.148005 162.866003,65.047996 162.302,65.84 C161.737997,66.632004 160.940005,67.2559977 159.908,67.712 C158.875995,68.1680023 157.700007,68.396 156.38,68.396 C154.819992,68.396 153.470006,68.0480035 152.33,67.352 C151.189994,66.6559965 150.62,65.7200059 150.62,64.544 C150.62,64.0399975 150.769998,63.6200017 151.07,63.284 C151.370001,62.9479983 151.735998,62.78 152.168,62.78 C152.624002,62.78 152.983999,62.9299985 153.248,63.23 C153.512001,63.5300015 153.644,63.883998 153.644,64.292 C153.644,64.700002 153.536001,65.0719983 153.32,65.408 C153.488001,65.9120025 153.859997,66.3139985 154.436,66.614 C155.012003,66.9140015 155.635997,67.064 156.308,67.064 C157.580006,67.064 158.545997,66.7700029 159.206,66.182 C159.866003,65.5939971 160.196,64.7480055 160.196,63.644 C160.196,62.851996 159.860003,62.156003 159.188,61.556 C158.515997,60.955997 157.496007,60.260004 156.128,59.468 C154.591992,58.5799956 153.434004,57.7760036 152.654,57.056 C151.873996,56.3359964 151.484,55.472005 151.484,54.464 C151.484,53.5999957 151.747997,52.7960037 152.276,52.052 C152.804003,51.3079963 153.541995,50.7140022 154.49,50.27 C155.438005,49.8259978 156.511994,49.604 157.712,49.604 C159.128007,49.604 160.369995,49.9339967 161.438,50.594 Z" id="outlines"></path>
        </g>
    </g>
</svg>